<?xml version="1.0" encoding="utf-8"?>
<!-- Generator: Adobe Illustrator 20.1.0, SVG Export Plug-In . SVG Version: 6.00 Build 0)  -->
<svg version="1.1" id="Layer_1" xmlns="http://www.w3.org/2000/svg" xmlns:xlink="http://www.w3.org/1999/xlink" x="0px" y="0px"
	 viewBox="0 0 85 85" style="enable-background:new 0 0 85 85;" xml:space="preserve">
<style type="text/css">
	.st0{fill:#C12126;}
</style>
<path class="st0" d="M15.3,69.6c3.5,3.5,7.6,6.3,12.2,8.2c4.7,2,9.8,3,14.9,3c5.2,0,10.2-1,14.9-3c4.6-1.9,8.7-4.7,12.2-8.2
	c3.5-3.5,6.3-7.6,8.2-12.2c2-4.7,3-9.8,3-14.9c0-5.2-1-10.2-3-14.9c-1.9-4.6-4.7-8.7-8.2-12.2c-1.8-1.8-3.8-3.4-5.9-4.8v5.3
	c7.8,6.2,12.8,15.9,12.8,26.6c0,17.2-12.8,31.4-29.3,33.7v-6.5c2.1-0.4,4.1-0.9,6-1.8c3.3-1.4,6.2-3.4,8.8-5.9
	c2.5-2.5,4.5-5.5,5.9-8.8c1.4-3.4,2.2-7,2.2-10.8s-0.7-7.3-2.2-10.8c-1.4-3.3-3.4-6.2-5.9-8.8c-0.8-0.8-1.7-1.6-2.6-2.3v-7.7V8v0
	c-0.7-0.3-1.3-0.6-2-0.9c-4.7-2-9.8-3-14.9-3c-5.2,0-10.2,1-14.9,3c-0.7,0.3-1.3,0.6-2,0.9v2.8v2.1v7.7c-0.9,0.7-1.8,1.5-2.6,2.3
	c-2.5,2.5-4.5,5.5-5.9,8.8c-1.4,3.4-2.2,7-2.2,10.8s0.7,7.3,2.2,10.8c1.4,3.3,3.4,6.2,5.9,8.8c2.5,2.5,5.5,4.5,8.8,5.9
	c2.2,0.9,4.5,1.6,6.9,1.9v-4.4C27.5,63.6,19,54,19,42.5c0-12.9,10.5-23.3,23.3-23.3c12.9,0,23.3,10.5,23.3,23.3
	c0,11.3-8,20.7-18.6,22.9v-6.6c2.7-0.8,5.2-2.2,7.2-4.3c3.2-3.2,5-7.4,5-12c0-4.5-1.8-8.8-5-12c-3.2-3.2-7.4-5-12-5
	c-4.5,0-8.8,1.8-12,5c-3.2,3.2-5,7.4-5,12c0,4.5,1.8,8.8,5,12c2.3,2.3,5,3.8,8.1,4.5v-4.5c-5.1-1.6-8.7-6.4-8.7-12
	c0-7,5.7-12.6,12.6-12.6c7,0,12.6,5.7,12.6,12.6c0,6.8-5.4,12.4-12.2,12.6V57v2.4v6.4v4.3v6.4c-0.1,0-0.3,0-0.4,0
	c-18.8,0-34.1-15.3-34.1-34.1c0-10.8,5-20.4,12.8-26.6v-5.3c-2.1,1.4-4.1,3-5.9,4.8C11.7,18.9,9,23,7,27.5c-2,4.7-3,9.8-3,14.9
	c0,5.2,1,10.2,3,14.9C9,61.9,11.7,66,15.3,69.6z M42.4,14.8c-3.7,0-7.3,0.7-10.8,2.2c-0.6,0.3-1.3,0.6-1.9,0.9v-7h-0.1
	c3.9-1.6,8.2-2.4,12.7-2.4c4.5,0,8.7,0.9,12.6,2.4v7c-0.6-0.3-1.2-0.6-1.9-0.9C49.7,15.6,46.1,14.8,42.4,14.8z"/>
</svg>
